<svg xmlns="http://www.w3.org/2000/svg" viewBox="0 0 352.01 88.17"><defs><style>.cls-1{fill:#a1cc3a}.cls-4{fill:#e6edb5}.cls-5{fill:#384e61}</style></defs><g id="Layer_2" data-name="Layer 2"><g id="Layer_1-2" data-name="Layer 1"><path class="cls-1" d="M82.83 25.51a11.61 11.61 0 01-.26 2.49l-2 9.32-.43 2-1.71 7.89v.22l-.76 3.51-1.69 7.79-.17.78-.64 3-.4 1.49-.72 3.27-.36 1.73a4.55 4.55 0 01-2.3 3l-.64.34-2 1.06L55 80.77 52.6 82 46 85.54a7.63 7.63 0 01-2.55.83 3.07 3.07 0 01-.53.07h-1.2a4.43 4.43 0 01-.51-.06 8.16 8.16 0 01-2.61-.85L13.15 72.05a4.55 4.55 0 01-2.3-3l-.36-1.68-4.32-19.98v-.12L2 28a11 11 0 01-.26-2.48v-.08a2.18 2.18 0 010-.35 11.3 11.3 0 016.92-9.91L39.2 2.32a8 8 0 016.13 0l30.56 12.82a11.31 11.31 0 016.92 9.94 3.17 3.17 0 010 .43"/><path d="M1.77 26l8.15 39.58A8.08 8.08 0 0014 71.06l27.1 15.31a.79.79 0 001.17-.72V46.91a8.85 8.85 0 00-4.94-8l-31.7-16A2.77 2.77 0 001.77 26" fill="#5d7a36"/><path d="M82.83 25.51a3.15 3.15 0 010 .52l-2.3 11.18-.42 2-1.64 8v.22l-.71 3.46L76 58.7l-.15.79-.65 3.11-.32 1.56-.29 1.41a7.72 7.72 0 01-.57 1.72A7.92 7.92 0 0170.65 71h-.08l-1.79 1-14.68 8.35-2.27 1.28-8.39 4.74a.76.76 0 01-.53.07.82.82 0 01-.6-.79V46.92a8.86 8.86 0 014.94-8l31.7-16a2.75 2.75 0 013.9 2.2 3.17 3.17 0 010 .43" fill="#c6d93f"/><path class="cls-4" d="M80.13 39.28l-1.71 7.9v.21l-.71 3.46L76 58.7l-.16.79-.65 3.11-.32 1.56-.29 1.41a7.72 7.72 0 01-.57 1.72L73.69 69a4.55 4.55 0 01-2.3 3l-.64.34v.25l-2 1.08-13.61 7.1-9.31 5.65L52.6 82c-.14-.06-7.3 4.21-7.66 4-2.37-1.41-.54-11.12-1.73-27.32-1.43-19.62 12.61-22 16.73-24.66C62.55 32.78 80.19 23 82.78 26c-1.45 6.06-2.68 13.21-2.65 13.25"/><path class="cls-1" d="M80.24 39.31c.35-1.42.72-2.83 1.1-4.24.24-.88.62-1.72.83-2.6a11.41 11.41 0 00.27-3.14 2.46 2.46 0 00-.24-1.14c-.45-.76-1.52-.83-2.4-.72-3.11.38-6 1.88-8.73 3.35a7.73 7.73 0 00-2.07 1.4c-1.14 1.22-.58 2.91-.46 4.42s.25 3.27.38 4.91q.52 6.81 1.06 13.63a1.06 1.06 0 001.88.47l6.54-8.47c.58-2.65 1.18-5.27 1.83-7.87m-15.78-5.19c-4.81 1.07-9.17 4.46-11.68 7.07a1.3 1.3 0 00.07 1.91l14.68 13a.93.93 0 001.58-.69L66.68 35.2c-.11-1-1.18-1.31-2.23-1.08M49.59 44.43c-2.74 2.77-4.73 10.14-4.86 15.3A1.43 1.43 0 0046.47 61l19.8-3a.68.68 0 00.4-1.19L51.94 44c-.72-.63-1.67-.28-2.35.4M67 59l-21.2 4.52a1 1 0 00-.79 1c.12 1.84.23 5 .52 8 .16 1.54 0 5 3.51 2l18.59-14.31A.67.67 0 0067 59m1.06 2.22c-3.35 2.68-6.71 5.64-10.06 8.32l-5.29 4.24c-2 1.56-3.32 2.26-5.23 3.88A9.54 9.54 0 0046.1 79a2.36 2.36 0 00-.17 1.15 25.94 25.94 0 00.71 5.19c0 .09 5.64-2.21 6.14-2.45 1-.49 2-1 3-1.59.82-.47 1.85-1.19 2.68-1.57 2.61-1.2 4.65-2.35 7.66-4 .7-.38 2.61-1 2.64-1.69l.37-12.4a.64.64 0 00-1-.41m9.53-10.38l-5.54 5.3a1.11 1.11 0 00.67 1.9l3.18.59H76zm-1.78 8.64l-.65 3.11-.12-.13-3.28-3.17a.36.36 0 01.38-.59l3.54.76zm-.97 4.67l-.29 1.41a7.72 7.72 0 01-.57 1.72L73.69 69a4.55 4.55 0 01-2.3 3l-.64.34-.1-1.34-.74-9.7c0-1 .84-1.25 1.5-.51L74.77 64z"/><path class="cls-4" d="M67.7 64.2s-3.7 9.9-3.19 10.28S67.7 64.2 67.7 64.2m3.2-1.6s1.76 8.08 2.07 8-2.07-8-2.07-8"/><path class="cls-5" d="M82.83 25.51h-1.7a10.11 10.11 0 01-.22 2.12l-2 9.32-.43 2-1.72 7.91v.22l-.76 3.5-1.69 7.8-.17.78-.64 3-.34 1.54-.72 3.28-.44 1.67a2.78 2.78 0 01-1.43 1.9l-.63.34-2 1.06-13.76 7.32.8 1.5v-1.7h-.43l-2.75 1.45L45.17 84a6 6 0 01-2 .64H43l-.19.06.56 1.61-.33-1.67h-1.93v1.7l.25-1.68a6.71 6.71 0 01-2.03-.66L14 70.54a2.78 2.78 0 01-1.43-1.9L12.16 67l-1.67.36h1.7v-.2l-4.35-20.1v-.12L3.63 27.63a10.11 10.11 0 01-.22-2.12v-.16h-.33l.33.06h-.33l.33.06v-.34H1.73l1.7.07a9.58 9.58 0 015.88-8.4L39.86 3.89a6.17 6.17 0 014.82 0l30.55 12.83a9.57 9.57 0 015.87 8.43v.36h3.41a5.32 5.32 0 000-.7l-1.69.27 1.7-.07a13 13 0 00-8-11.44L46 .74a9.72 9.72 0 00-7.44 0L8 13.57A13 13 0 000 25v.11h1.73l-1.68-.3a3 3 0 000 .65v.08a13.34 13.34 0 00.3 2.85L4.47 47.6v.09l4.35 19.97 1.67-.36H8.78v.21l.4 1.85a6.23 6.23 0 003.17 4.19l25.4 13.5a10 10 0 003.15 1h.26v-1.66l-.23 1.69a4.63 4.63 0 00.63.07h1.4a5 5 0 00.77-.09h.11L44 88l-.56-1.61.24 1.69a9.53 9.53 0 003.11-1l6.61-3.51 2.37-1.26-.77-1.54v1.71h.44L69.54 75l2-1.07.63-.34a6.23 6.23 0 003.17-4.19l.36-1.71.71-3.27.35-1.56.64-3 .17-.78 1.69-7.8.74-3.54v-.21l1.71-7.9.43-2 2-9.32a13.34 13.34 0 00.3-2.85z"/><path class="cls-4" d="M70.91 53.38c.12-1 .27-4.08.32-6a36.36 36.36 0 00-.07-6.09c-.63 1-.35 4.52-.37 5.83q0 3.15.12 6.29m-4.02-.35l-4.26-8.38a2.82 2.82 0 01-.46-1.87c.15-.12.34.1.41.28 1.17 2.84 3.14 7.13 4.31 10M67 54l-3.3-3.83a1.22 1.22 0 01-.43-.9l.28.1C64.47 50.65 66 52.63 67 54m5.1-.94s.89-8.57 1.27-9-1.27 9-1.27 9m-19.72-.88l10.86 4.35S52.12 51 52.38 52.18m9.75 4.68s-9.83.09-9.75.33 9.75-.33 9.75-.33m3.17 3.53s-9 3.45-8 3.59 8-3.59 8-3.59m.8 5.25s-2.74 4.65-2.5 4.75 2.5-4.75 2.5-4.75m.5-1.56s-8.94 8.5-8.94 8.85 8.94-8.85 8.94-8.85"/><path class="cls-5" d="M124.27 61.13V26.94c0-1.7.72-2.55 2.18-2.55l10.27-.05a14.54 14.54 0 017 1.92q2.93 1.77 3.6 6.54t-3.58 8q6.18 2 7.16 7.81a13.49 13.49 0 01-2.09 10.3c-2.06 3-5.41 4.45-10 4.41h-12.42a1.87 1.87 0 01-2.12-2.18m12.24-31.34h-6.59V40h6.44c3.45-.55 5.16-2.35 5.11-5.4s-1.71-4.63-5-4.77m.88 15.2H130l.06 12.2h8.56c2.77.17 4.71-.7 5.84-2.6a6.28 6.28 0 000-6.27q-1.65-3.43-7.11-3.33M162.2 53c.17 2.7 1.27 4.33 3.32 4.88q2.64 1.62 1.29 4T162.3 63q-5.87-2.53-5.76-8.41l.05-27.6q-.32-2.8 2.88-2.75c2.13 0 3.05 1 2.78 2.75zm21.95-17.63a13 13 0 015.68 1.43 13.32 13.32 0 014.85 4.51q2.17 3.16 2.13 8.9c0 3.82-.95 6.8-2.75 8.92a13 13 0 01-5.35 4.13 15 15 0 01-5.08.93 18.38 18.38 0 01-5.37-.9 11.59 11.59 0 01-5.48-4.11q-2.53-3.18-2.64-8.82a14.67 14.67 0 012.54-9.23 12.89 12.89 0 015.55-4.72 15 15 0 015.92-1m-6.28 7.47a9.57 9.57 0 00-2.41 7q0 4.52 2.49 6.77a7.79 7.79 0 005.55 2.21 8.41 8.41 0 005.55-2.23q2.47-2.19 2.41-6.88t-2.57-7.13a7.46 7.46 0 00-5.55-2.36 7.72 7.72 0 00-5.47 2.59m43.02-3.2q1.91 2.6.23 4.23a2.58 2.58 0 01-3.71.13 7.26 7.26 0 00-5.63-2.83 6.76 6.76 0 00-5.14 2.54c-1.4 1.65-2 3.92-1.89 6.83s1.12 5 3 6.22a7.76 7.76 0 005.73 1.41 5.28 5.28 0 004.07-2.39c1-1.49 2.17-1.87 3.51-1.14s1.68 1.92 1.06 3.58a10.53 10.53 0 01-4.78 4.28 13.34 13.34 0 01-8.12.75 11 11 0 01-7.43-4.26 14.51 14.51 0 01-2.52-8.87 15.59 15.59 0 013.07-9.49q3-4.11 8.92-4.49a11.54 11.54 0 019.63 3.55m27.75 23.2c-1.59 1.11-2.8 1-3.63-.31l-8.72-11.84-3.21 3.12v7.63c0 1.45-1 2.18-3 2.18s-3-.73-3-2.18v-35c0-1.66 1-2.49 2.93-2.49s2.88.83 2.88 2.49v20l10.56-9.5q1.73-1.81 3.69.08t.41 3.86l-7 5.92 8.88 12.4c1 1.35.76 2.58-.84 3.69"/><path class="cls-1" d="M262.28 52.89c.17 2.71 1.28 4.35 3.33 4.9q2.65 1.62 1.31 4T262.38 63q-5.89-2.55-5.79-8.44l.05-27.75c-.2-1.87.76-2.8 2.9-2.76s3.07 1 2.79 2.76zm9.28-25.19a3.55 3.55 0 011.07-2.53 3.35 3.35 0 012.52-1.12 3.16 3.16 0 012.38 1 3.67 3.67 0 011 2.63 3.65 3.65 0 01-1 2.66 3.31 3.31 0 01-4.9-.07 3.73 3.73 0 01-1-2.59m3.51 8c-2 0-2.92.63-2.89 1.84v23.97c-.07 1.4.92 2.08 3 2.06s3-.7 2.77-2.06V37.55c.07-1.25-.88-1.86-2.85-1.84m15 2.16v1.62a17.43 17.43 0 018.73-3.81c3.08-.38 5.26 1 6.55 4.22a16.92 16.92 0 016.17-3.75 10.61 10.61 0 016.44.15c2.27.74 3.31 3.1 3.13 7.1v18.14c-.28 1.26-1.26 1.88-2.94 1.88s-2.6-.64-2.74-1.93V44.07q-.11-6.41-9.65-1.15V61.7c0 1.15-1 1.72-2.95 1.72S300 62.81 300 61.6V44.28q0-6.47-9.64-1.66v19c-.07 1.21-1 1.82-2.9 1.82s-2.81-.62-2.84-1.88V38c-.11-1.46.8-2.2 2.69-2.22s2.84.69 2.84 2.11m48.54 25.97a13.22 13.22 0 01-8.45-3.59c-2.55-2.28-3.91-5.54-4-9.78a15.28 15.28 0 013.44-10.72 12 12 0 019.32-4.48 13.82 13.82 0 019.26 2.76q3.59 2.89 3.8 10.46a3 3 0 01-2.39 3.17h-17.74a6.72 6.72 0 002.64 4.89 9.26 9.26 0 005.87 1.85 7.43 7.43 0 005.83-2.67A2.48 2.48 0 01350 55c1.52.87 1.63 2.32.34 4.33a12.7 12.7 0 01-4.46 3.53 16 16 0 01-7.14 1m-2.37-23.07c-2.27.8-3.67 2.73-4.23 5.79h14.34q-.48-4.58-3.64-5.79a9.15 9.15 0 00-6.52 0"/></g></g></svg>