<svg width="483" height="122" xmlns="http://www.w3.org/2000/svg"><g fill="none" fill-rule="evenodd"><path d="M56.229 63.952L29.386 90.9a6 6 0 01-8.502 0l-.546-.55a6 6 0 010-8.468L47.18 54.934a6 6 0 018.502 0l.547.55a6 6 0 010 8.468z" fill="#2F2F41"/><rect fill="#FF7063" x="52" y="38" width="50" height="13" rx="6"/><path d="M51.5 44.5v-38a6 6 0 016-6h1a6 6 0 016 6v38a6 6 0 01-6 6h-1a6 6 0 01-6-6z" fill="#FF7063"/><rect fill="#2F2F41" y="38" width="39" height="13" rx="6"/><path d="M55.767 54.934l26.842 26.948a6 6 0 010 8.469l-.547.549a6 6 0 01-8.502 0L46.718 63.952a6 6 0 010-8.469l.547-.549a6 6 0 018.502 0z" fill="#2F2F41"/><text font-family="ProximaSoft-Regular, Proxima Soft" font-size="140" letter-spacing="-.154" fill="#2F2F41" transform="translate(0 -45)"><tspan x="138" y="139">Lykke</tspan></text></g></svg>